<?xml version="1.0" standalone="no"?><!DOCTYPE svg PUBLIC "-//W3C//DTD SVG 1.1//EN" "http://www.w3.org/Graphics/SVG/1.1/DTD/svg11.dtd"><svg class="icon" height="512" viewBox="0 0 1024 1024" version="1.1" xmlns="http://www.w3.org/2000/svg"><path d="M1011.8 183.2c-7.6-12.6-19-22.4-35.2-30.2-14.6-7-32.8-10.2-55.8-10.2H283.6l-6-42.8c-1.2-8-2.2-14.4-4-20.8l-4.8-16-0.2-0.6c-3-9.8-8-19.2-15.2-28.6l-0.4-0.6c-7.4-9-17.2-16.6-28.8-22.4-12-6-27.4-9.2-45.4-9.2H82.2c-22.4 0-41.6 7-57 21l-0.2 0.2c-15 14-23 33-23 54.6 0 7.6 0.8 26.2 3 37.2 2 10.4 6 20.4 12.8 32.4l0.4 0.6c6.6 10 14.8 18.8 23.8 25.4 11.8 9 26.6 13.8 43.2 13.8H130l37.2 270.4 45.8 239.6c2.2 11 5.2 21.6 9.2 34.4l0.2 0.4c3.4 9.6 8.6 23.8 17.8 37 8.2 13 18.6 23.8 30.8 31.8 1.8 1.2 3.6 2.4 5.4 3.4-3 2.4-6 5-8.8 7.6l-0.2 0.2c-12 11.8-20.8 24.8-26 38.4-6.4 15.2-9.8 31-9.8 47 0 15.8 3.2 31.8 9.4 46.2 5.6 14.2 14.2 27 26.8 39.4l0.2 0.2c10.8 10.2 23 18.4 37.6 25s31 10 48.8 10c17 0 32.6-3.2 47.8-9.8 14.8-6.4 27.4-14.8 38.8-25.6l0.2-0.2c12-12 20.8-24.8 26-38.4 6.4-15.2 9.8-31 9.8-47s-3.2-32-9.4-46.2c-5.2-13-12.8-24.8-23.6-36.2h228.8c-11.2 11.4-19.6 23.6-25.4 37.2-6.6 15-10 30.8-10 47.2 0 16.2 3.4 32.2 9.8 47.2 6 13.8 14.6 26.4 25.8 37.6 10.2 10.8 23.4 19.8 38.6 26.4 14.8 6.4 31.4 10 47.8 10 17.2 0 33.2-3.2 48-9.8 15.4-6.4 28.4-15 39.4-26 11.8-11.8 20.2-24.2 26.2-38 6.6-15 10-30.8 10-47.2s-3.4-32.2-10-47.2c-6.2-14.2-14.8-26.6-26.4-38.2l-0.2-0.2c15.2-2.2 36-8.4 47.8-26.8 10-14.8 15.2-31.8 15.2-50.8 0-9-1.6-26.2-12-41.8-13.2-19.6-35.6-29.4-66.8-29.4H366.4l-4-23h474c25.8 0 46.6-7.2 65-21.6 18-14 31.8-36.4 42.8-68.6l0.2-0.6v-0.2c2.8-8.4 6.4-19 10.8-32.4l1.6-5 0.4-0.8 59.8-259.2 0.2-0.6c2.6-8.2 4.2-17.2 4.8-28.6 0.8-14.8-2.4-28.2-10.2-41z m-192.8 715.2c0 7.8-1.4 15-4.6 22-2.8 6.6-7 12.6-13 18.6-5.2 5.2-11 9-18.8 12.2h-0.2l-0.8 0.4c-13.8 6-31.4 6-45.2 0-8.2-3.6-13.8-7.4-18.2-12.4l-0.2-0.2c-6-6-10-11.8-13-18.6-3.2-7-4.6-14-4.6-22-0.2-7.6 1.2-14.8 4.4-21.8 2.8-6.8 7-12.4 13.4-19l0.4-0.4c4.2-4.6 10-8.2 16.8-11 7.6-3 15.8-4.6 23.4-4.6 8 0 16.2 1.6 24.4 4.6l0.6 0.2h0.2c6.6 2.6 12.4 6.2 17.4 11.2 6 6 10.2 12 13 18.6 3.2 7.4 4.6 14.6 4.6 22.2z m43.6-328.8c-7 5.4-14.2 8.2-26 8.2H287.2l25.8 149.8H830c12.2 0 15 2.4 15 2.4l0.2 0.2c0.4 0.8 0.4 4 0.4 5.2-0.2 5.6-1.2 10-3.6 14-1.6 0.6-5 1.2-11 1.2h-510c-6.6 0-12-1.2-15.2-3.4-4.6-3.2-9-7.6-12.8-13.6l-0.2-0.4c-3.8-5.6-7-12.4-10.4-21.8-2.8-9.2-5.6-19-7.2-27.4L182.4 123H98.2c-2.6 0-19.6 0.4-26-8.8-2.6-5-4.2-8.6-4.6-11.2-1.2-6.4-1.8-21.8-1.8-25.6 0-5.6 1.6-7.4 2.6-8.2 2.2-2 6-4.2 14.2-4.2h96.4c11.2 0 16 1.8 17 2.4 3.2 1.6 16.8 29.2 16.8 29.2 0.6 2.2 1.4 6.6 2.4 13.6l14.6 96.2h691.2c17.2 0 25.4 2.6 28.6 4.2 6.6 3.2 8 5.4 8 5.4 1.4 2.2 1.4 3.2 1.4 4.6-0.4 7-1.2 10.4-1.6 12l-56.4 248.6-5.4 15.6c-5.6 16.2-9 26.6-11.4 34.4-8.2 24.2-16.4 34.2-21.6 38.4zM299.8 874l0.2-0.4c2.4-6.2 6.2-11.4 11.6-16.8 5.8-5.4 12.2-9.6 18.8-12.2 7-2.8 15-4.4 23.6-4.4 8 0 15.8 1.4 23.4 4.6 7 2.6 13.2 6.6 18.6 11.8 6 6 9.8 11.4 12.2 18l0.2 0.4c3 7 4.6 14.2 4.6 21.8 0 7.6-1.6 14.8-5 22.6l-0.2 0.4c-2.4 6-6.2 11.4-11.6 16.8-6 5.6-12.4 9.8-20 13-13.8 6-31.8 6.2-45 0.2-7.2-3.2-13.8-7.6-19.6-12.8-5.8-5.8-9.6-11.4-12.2-18l-0.2-0.4c-3-7-4.6-14.2-4.6-21.8 0.4-8 1.8-15 5.2-22.8z" fill="#272636" /></svg>